<svg width="48" height="48" viewBox="0 0 48 48" fill="none" xmlns="http://www.w3.org/2000/svg">
<path d="M38.1267 13.0957C38.4615 13.0958 38.7405 13.2113 38.989 13.4609C39.2377 13.7109 39.3532 13.9921 39.3533 14.3301C39.3533 14.6679 39.2382 14.9501 38.99 15.2012L19.7517 34.4268C19.4985 34.6774 19.2216 34.7909 18.8982 34.791C18.5743 34.791 18.298 34.6772 18.0476 34.4268L8.97241 25.3516C8.72692 25.1012 8.61877 24.8226 8.62769 24.4893C8.63692 24.1466 8.75927 23.8614 9.01147 23.6104C9.26138 23.3617 9.54272 23.2462 9.88062 23.2461C10.2178 23.2461 10.5 23.3602 10.7507 23.6074V23.6084L18.5457 31.4404L18.8992 31.7959L19.2537 31.4414L37.2429 13.4639C37.5028 13.2113 37.7901 13.0957 38.1267 13.0957Z" fill="white" stroke="white"/>
</svg>
