<svg width="37" height="37" viewBox="0 0 37 37" fill="none" xmlns="http://www.w3.org/2000/svg">
<path d="M15.6455 17.311H7.11C6.629 17.311 6.22483 17.1473 5.8975 16.82C5.57017 16.4927 5.4065 16.0885 5.4065 15.6075V7.072C5.4065 6.591 5.57017 6.18683 5.8975 5.8595C6.22483 5.53216 6.629 5.3685 7.11 5.3685H15.6455C16.1265 5.3685 16.5307 5.53216 16.858 5.8595C17.1853 6.18683 17.349 6.591 17.349 7.072V15.6075C17.349 16.0885 17.1853 16.4927 16.858 16.82C16.5307 17.1473 16.1265 17.311 15.6455 17.311ZM15.6455 31.2535H7.11C6.629 31.2535 6.22483 31.0898 5.8975 30.7625C5.57017 30.4352 5.4065 30.031 5.4065 29.55V21.0145C5.4065 20.5335 5.57017 20.1293 5.8975 19.802C6.22483 19.4747 6.629 19.311 7.11 19.311H15.6455C16.1265 19.311 16.5307 19.4747 16.858 19.802C17.1853 20.1293 17.349 20.5335 17.349 21.0145V29.55C17.349 30.031 17.1853 30.4352 16.858 30.7625C16.5307 31.0898 16.1265 31.2535 15.6455 31.2535ZM29.538 17.311H21.0025C20.5215 17.311 20.1173 17.1473 19.79 16.82C19.4627 16.4927 19.299 16.0885 19.299 15.6075V7.072C19.299 6.591 19.4627 6.18683 19.79 5.8595C20.1173 5.53216 20.5215 5.3685 21.0025 5.3685H29.538C30.019 5.3685 30.4232 5.53216 30.7505 5.8595C31.0778 6.18683 31.2415 6.591 31.2415 7.072V15.6075C31.2415 16.0885 31.0778 16.4927 30.7505 16.82C30.4232 17.1473 30.019 17.311 29.538 17.311ZM29.538 31.2535H21.0025C20.5215 31.2535 20.1173 31.0898 19.79 30.7625C19.4627 30.4352 19.299 30.031 19.299 29.55V21.0145C19.299 20.5335 19.4627 20.1293 19.79 19.802C20.1173 19.4747 20.5215 19.311 21.0025 19.311H29.538C30.019 19.311 30.4232 19.4747 30.7505 19.802C31.0778 20.1293 31.2415 20.5335 31.2415 21.0145V29.55C31.2415 30.031 31.0778 30.4352 30.7505 30.7625C30.4232 31.0898 30.019 31.2535 29.538 31.2535ZM8.4065 14.311H14.349V8.3685H8.4065V14.311ZM22.299 14.311H28.2415V8.3685H22.299V14.311ZM8.4065 28.2535H14.349V22.311H8.4065V28.2535ZM22.299 28.2535H28.2415V22.311H22.299V28.2535ZM3.4065 36.61C2.48717 36.61 1.6895 36.2722 1.0135 35.5965C0.337833 34.9205 0 34.1228 0 33.2035V3.4185C0 2.49917 0.337833 1.6995 1.0135 1.0195C1.6895 0.339831 2.48717 0 3.4065 0H33.1915C34.1108 0 34.9105 0.339831 35.5905 1.0195C36.2702 1.6995 36.61 2.49917 36.61 3.4185V33.2035C36.61 34.1228 36.2702 34.9205 35.5905 35.5965C34.9105 36.2722 34.1108 36.61 33.1915 36.61H3.4065ZM3.4065 33.2035H33.1915V3.4185H3.4065V33.2035Z" fill="white"/>
</svg>
