<svg width="41" height="39" viewBox="0 0 41 39" fill="none" xmlns="http://www.w3.org/2000/svg">
<path d="M3.4065 30.6165V35.335H37.1915V30.6165H3.4065ZM3.4065 8.1315H9.274C9.11533 7.8315 8.984 7.45783 8.88 7.0105C8.776 6.56316 8.724 6.1535 8.724 5.7815C8.724 4.1755 9.288 2.8105 10.416 1.6865C11.5437 0.562166 12.8935 0 14.4655 0C15.5025 0 16.4617 0.260333 17.343 0.781C18.2247 1.30167 18.9195 1.966 19.4275 2.774L20.324 4.1575L21.2205 2.774C21.7618 1.93267 22.4558 1.26 23.3025 0.756C24.1488 0.252 25.0563 0 26.025 0C27.6633 0 29.0477 0.554832 30.178 1.6645C31.3087 2.77417 31.874 4.15383 31.874 5.8035C31.874 6.1555 31.8323 6.51683 31.749 6.8875C31.6657 7.25817 31.5407 7.67283 31.374 8.1315H37.1915C38.1148 8.1315 38.9153 8.4705 39.593 9.1485C40.271 9.82617 40.61 10.6267 40.61 11.55V35.335C40.61 36.255 40.271 37.0527 39.593 37.728C38.9153 38.4037 38.1148 38.7415 37.1915 38.7415H3.4065C2.4865 38.7415 1.68883 38.4037 1.0135 37.728C0.337834 37.0527 0 36.255 0 35.335V11.55C0 10.6267 0.337834 9.82617 1.0135 9.1485C1.68883 8.4705 2.4865 8.1315 3.4065 8.1315ZM3.4065 24.9915H37.1915V11.55H25.1L29.059 17.049C29.3257 17.3983 29.4153 17.785 29.328 18.209C29.2407 18.6327 29.022 18.9792 28.672 19.2485C28.314 19.5205 27.9238 19.6198 27.5015 19.5465C27.0788 19.4732 26.7335 19.248 26.4655 18.871L20.299 10.2685L14.1325 18.871C13.8725 19.248 13.5355 19.4732 13.1215 19.5465C12.7075 19.6198 12.321 19.5192 11.962 19.2445C11.596 18.9778 11.3693 18.6327 11.282 18.209C11.1947 17.785 11.2843 17.3983 11.551 17.049L15.522 11.55H3.4065V24.9915ZM14.5175 8.4315C15.2508 8.4315 15.8758 8.17317 16.3925 7.6565C16.9092 7.13983 17.1675 6.51483 17.1675 5.7815C17.1675 5.05617 16.9092 4.43317 16.3925 3.9125C15.8758 3.39183 15.2508 3.1315 14.5175 3.1315C13.7842 3.1315 13.1592 3.39183 12.6425 3.9125C12.1258 4.43317 11.8675 5.05617 11.8675 5.7815C11.8675 6.51483 12.1258 7.13983 12.6425 7.6565C13.1592 8.17317 13.7842 8.4315 14.5175 8.4315ZM26.0305 8.4315C26.7955 8.4315 27.4368 8.17317 27.9545 7.6565C28.4718 7.13983 28.7305 6.51483 28.7305 5.7815C28.7305 5.05617 28.4718 4.43317 27.9545 3.9125C27.4368 3.39183 26.7955 3.1315 26.0305 3.1315C25.3305 3.1315 24.7222 3.39183 24.2055 3.9125C23.6888 4.43317 23.4305 5.05617 23.4305 5.7815C23.4305 6.51483 23.6888 7.13983 24.2055 7.6565C24.7222 8.17317 25.3305 8.4315 26.0305 8.4315Z" fill="white"/>
</svg>
